<?xml version="1.0" encoding="UTF-8" standalone="no"?>
<!DOCTYPE svg PUBLIC "-//W3C//DTD SVG 1.1//EN" "http://www.w3.org/Graphics/SVG/1.1/DTD/svg11.dtd">
<svg width="100%" height="100%" viewBox="0 0 885 581" version="1.1" xmlns="http://www.w3.org/2000/svg" xmlns:xlink="http://www.w3.org/1999/xlink" xml:space="preserve" xmlns:serif="http://www.serif.com/" style="fill-rule:evenodd;clip-rule:evenodd;stroke-linejoin:round;stroke-miterlimit:2;">
    <g transform="matrix(0.1,0,0,-0.1,-184.695,789.62)">
        <rect x="2030" y="2260" width="2820" height="50" style="fill:rgb(51,51,51);fill-rule:nonzero;"/>
    </g>
    <g transform="matrix(0.1,0,0,-0.1,-184.695,789.62)">
        <rect x="7620" y="2260" width="2820" height="50" style="fill:rgb(51,51,51);fill-rule:nonzero;"/>
    </g>
    <g transform="matrix(1,0,0,1,-184.695,-204.38)">
        <path d="M505.094,785L510.969,785L510.969,760.834L511.076,760.834L519.184,779.444L524.076,779.444L532.184,760.834L532.317,760.834L532.317,785L538.192,785L538.192,746.239L532.636,746.239L521.736,771.495L510.624,746.239L505.094,746.239L505.094,785Z" style="fill:rgb(51,51,51);fill-rule:nonzero;"/>
        <path d="M547.202,765.62C547.202,770.05 547.335,773.046 547.601,774.605C547.743,775.438 547.92,776.13 548.133,776.679C548.363,777.211 548.62,777.769 548.904,778.354C549.843,780.144 551.35,781.721 553.423,783.086C555.461,784.504 558.005,785.248 561.053,785.319C564.137,785.248 566.707,784.504 568.763,783.086C570.801,781.721 572.272,780.144 573.176,778.354C573.832,777.414 574.283,776.165 574.532,774.605C574.762,773.046 574.877,770.05 574.877,765.62C574.877,761.118 574.762,758.105 574.532,756.581C574.283,755.057 573.832,753.825 573.176,752.885C572.272,751.095 570.801,749.5 568.763,748.1C566.707,746.682 564.137,745.956 561.053,745.92C558.005,745.956 555.461,746.682 553.423,748.1C551.35,749.5 549.843,751.095 548.904,752.885C548.319,753.825 547.885,755.057 547.601,756.581C547.335,758.105 547.202,761.118 547.202,765.62ZM553.104,765.62C553.104,761.809 553.246,759.213 553.53,757.83C553.778,756.519 554.283,755.446 555.045,754.613C555.665,753.816 556.48,753.151 557.491,752.62C558.483,752.106 559.671,751.831 561.053,751.796C562.453,751.831 563.667,752.106 564.695,752.62C565.67,753.151 566.45,753.816 567.035,754.613C567.797,755.446 568.32,756.519 568.603,757.83C568.869,759.213 569.002,761.809 569.002,765.62C569.002,769.43 568.869,772.009 568.603,773.356C568.32,774.703 567.797,775.793 567.035,776.626C566.45,777.423 565.67,778.07 564.695,778.566C563.667,779.151 562.453,779.444 561.053,779.444C559.671,779.444 558.483,779.151 557.491,778.566C556.48,778.07 555.665,777.423 555.045,776.626C554.283,775.793 553.778,774.703 553.53,773.356C553.246,772.009 553.104,769.43 553.104,765.62Z" style="fill:rgb(51,51,51);fill-rule:nonzero;"/>
        <path d="M583.914,785L597.073,785C599.98,785 602.435,784.362 604.437,783.086C606.458,781.898 608.035,780.392 609.17,778.566C609.595,777.875 609.958,777.211 610.26,776.573C610.543,775.917 610.756,775.172 610.898,774.339C611.199,772.691 611.35,769.785 611.35,765.62C611.35,761.703 611.252,758.947 611.057,757.352C610.809,755.757 610.215,754.232 609.276,752.779C606.653,748.455 602.718,746.275 597.472,746.239L583.914,746.239L583.914,785ZM589.789,751.796L596.808,751.796C599.785,751.725 602.089,752.815 603.72,755.065C604.517,755.969 605.022,757.148 605.235,758.601C605.395,760.055 605.474,762.465 605.474,765.832C605.474,769.288 605.395,771.646 605.235,772.904C605.058,774.18 604.641,775.234 603.986,776.067C602.497,778.318 600.104,779.444 596.808,779.444L589.789,779.444L589.789,751.796Z" style="fill:rgb(51,51,51);fill-rule:nonzero;"/>
        <path d="M619.668,771.867C619.704,775.943 621.051,779.178 623.709,781.571C626.315,784.034 629.558,785.284 633.439,785.319C637.392,785.284 640.662,784.034 643.249,781.571C645.819,779.178 647.139,775.943 647.21,771.867L647.21,746.239L641.335,746.239L641.335,771.229C641.3,773.87 640.555,775.881 639.102,777.264C637.613,778.717 635.726,779.444 633.439,779.444C631.153,779.444 629.283,778.717 627.83,777.264C626.341,775.881 625.579,773.87 625.544,771.229L625.544,746.239L619.668,746.239L619.668,771.867Z" style="fill:rgb(51,51,51);fill-rule:nonzero;"/>
        <path d="M656.859,785L681.609,785L681.609,779.444L662.734,779.444L662.734,746.239L656.859,746.239L656.859,785Z" style="fill:rgb(51,51,51);fill-rule:nonzero;"/>
        <path d="M689.317,785L714.067,785L714.067,779.444L695.192,779.444L695.192,768.065L711.302,768.065L711.302,762.855L695.192,762.855L695.192,751.796L714.067,751.796L714.067,746.239L689.317,746.239L689.317,785Z" style="fill:rgb(51,51,51);fill-rule:nonzero;"/>
        <path d="M722.253,775.589L718.398,780.002C722.528,783.547 727.464,785.319 733.206,785.319C742.085,785.213 746.623,781.455 746.818,774.047C746.818,771.3 745.958,768.89 744.239,766.816C742.502,764.707 739.817,763.404 736.184,762.908C734.34,762.678 732.887,762.474 731.824,762.297C729.91,761.942 728.518,761.304 727.65,760.382C726.781,759.479 726.347,758.468 726.347,757.352C726.383,755.491 727.03,754.091 728.288,753.151C729.493,752.247 731,751.796 732.807,751.796C736.299,751.866 739.498,752.859 742.404,754.773L745.674,749.935C742.112,747.365 737.92,746.027 733.1,745.92C729.094,745.956 726.002,747.001 723.822,749.057C721.571,751.131 720.445,753.86 720.445,757.245C720.445,760.063 721.34,762.456 723.13,764.423C724.867,766.337 727.402,767.569 730.734,768.119C732.595,768.384 734.305,768.624 735.865,768.836C739.267,769.421 740.951,771.158 740.916,774.047C740.845,777.574 738.293,779.373 733.259,779.444C729.006,779.408 725.337,778.123 722.253,775.589Z" style="fill:rgb(51,51,51);fill-rule:nonzero;"/>
    </g>
    <g transform="matrix(1,0,0,1,-195.695,-204.38)">
        <path d="M249.275,672.613C249.984,673.829 250.605,675.108 251.137,676.451C251.669,677.794 252.188,679.149 252.695,680.517C253.201,679.098 253.733,677.743 254.291,676.451C254.848,675.159 255.481,673.854 256.191,672.537L293.051,605.581C293.709,604.416 294.393,603.706 295.103,603.453C295.812,603.2 296.825,603.073 298.143,603.073L309.011,603.073L309.011,711.981L296.091,711.981L296.091,631.953C296.091,630.889 296.116,629.749 296.167,628.533C296.217,627.317 296.293,626.076 296.395,624.809L259.079,692.905C257.812,695.185 256.039,696.325 253.759,696.325L251.631,696.325C249.351,696.325 247.577,695.185 246.311,692.905L208.159,624.581C208.311,625.898 208.425,627.19 208.501,628.457C208.577,629.724 208.615,630.889 208.615,631.953L208.615,711.981L195.695,711.981L195.695,603.073L206.563,603.073C207.88,603.073 208.893,603.2 209.603,603.453C210.312,603.706 210.996,604.416 211.655,605.581L249.275,672.613Z" style="fill:rgb(51,51,51);fill-rule:nonzero;"/>
        <path d="M431.219,711.981L419.819,711.981C418.501,711.981 417.437,711.652 416.627,710.993C415.816,710.334 415.208,709.498 414.803,708.485L404.619,682.189L355.751,682.189L345.567,708.485C345.212,709.397 344.604,710.208 343.743,710.917C342.881,711.626 341.817,711.981 340.551,711.981L329.151,711.981L372.699,603.073L387.671,603.073L431.219,711.981ZM359.855,671.549L400.515,671.549L383.415,627.241C382.3,624.505 381.211,621.085 380.147,616.981C379.589,619.058 379.045,620.971 378.513,622.719C377.981,624.467 377.461,626 376.955,627.317L359.855,671.549Z" style="fill:rgb(51,51,51);fill-rule:nonzero;"/>
        <path d="M476.363,656.045L440.415,603.073L455.083,603.073C456.147,603.073 456.932,603.25 457.439,603.605C457.945,603.96 458.401,604.466 458.807,605.125L487.231,648.749C487.585,647.685 488.117,646.52 488.827,645.253L515.655,605.429C516.111,604.72 516.605,604.15 517.137,603.719C517.669,603.288 518.315,603.073 519.075,603.073L533.135,603.073L497.035,655.361L534.351,711.981L519.759,711.981C518.644,711.981 517.77,711.69 517.137,711.107C516.503,710.524 515.984,709.878 515.579,709.169L486.395,663.493C486.04,664.557 485.584,665.57 485.027,666.533L456.603,709.169C456.147,709.878 455.627,710.524 455.045,711.107C454.462,711.69 453.639,711.981 452.575,711.981L438.895,711.981L476.363,656.045Z" style="fill:rgb(51,51,51);fill-rule:nonzero;"/>
    </g>
    <g transform="matrix(2.72332,0,0,2.72332,94.5258,328.105)">
        <path d="M116.11,65.92C121.93,65.92 126.67,64.01 128.97,62.32L129.81,67.75C126.83,69.66 123,71.35 116.34,71.35C101.95,71.35 95.91,63.7 95.91,46.86C95.91,30.02 101.5,21.53 116.11,21.53C122.54,21.53 126.14,23.29 129.35,25.05L128.51,30.56C125.14,28.57 121.09,26.96 115.88,26.96C105.24,26.96 101.8,33.46 101.8,46.55C101.8,58.72 104.78,65.91 116.11,65.91L116.11,65.92Z" style="fill:rgb(0,55,100);fill-rule:nonzero;"/>
        <path d="M137.39,22.22L143.06,22.22L159.06,48.24L175.06,22.22L180.72,22.22L180.72,70.59L174.9,70.59L174.9,32.63L159.59,57.5L158.44,57.5L143.21,32.7L143.21,70.58L137.39,70.58L137.39,22.22Z" style="fill:rgb(0,55,100);fill-rule:nonzero;"/>
        <path d="M217.08,69.05C213.64,70.27 208.2,71.19 203.07,71.19C194.19,71.19 188.3,68.21 188.3,59.86C188.3,51.51 194.19,48.46 204.22,48.46L211.49,48.46L211.49,44.86C211.49,39.81 207.97,38.2 202.15,38.2C197.86,38.2 194.34,38.97 192.05,39.81L191.21,34.68C194.19,33.84 197.94,33.07 202.38,33.07C210.8,33.07 217.07,36.13 217.07,45.31L217.07,69.03L217.08,69.05ZM211.49,52.9L204.3,52.9C197.49,52.9 193.89,54.58 193.89,59.79C193.89,65 197.49,66.37 202.92,66.37C205.6,66.37 209.12,66.06 211.49,65.3L211.49,52.9Z" style="fill:rgb(0,55,100);fill-rule:nonzero;"/>
        <path d="M225.44,18.39L231.03,18.39L231.03,70.58L225.44,70.58L225.44,18.39ZM248.02,33.7L255.14,33.7L239.83,51.15L256.67,70.59L249.55,70.59L232.71,51.15L248.02,33.7Z" style="fill:rgb(0,55,100);fill-rule:nonzero;"/>
        <path d="M289.57,54.36L264.39,54.36L264.39,54.67C264.39,62.48 268.91,65.92 276.56,65.92C280.85,65.92 285.36,64.85 288.12,63.39L288.96,68.67C285.36,70.28 281,71.2 276.49,71.2C264.7,71.2 258.73,65.31 258.73,52.22C258.73,41.58 262.63,33.09 274.73,33.09C284.45,33.09 290.19,38.52 290.19,49.24C290.19,50.77 290.04,52.76 289.58,54.37L289.57,54.36ZM264.39,49.62L284.82,49.62L284.82,49.16C284.82,41.28 280.84,38.06 274.57,38.06C268.3,38.06 264.39,41.2 264.39,49.16L264.39,49.62Z" style="fill:rgb(0,55,100);fill-rule:nonzero;"/>
    </g>
    <g transform="matrix(0.116459,0,0,-0.116459,-414.465,861.955)">
        <g transform="matrix(36.6023,0,0,-36.6023,5823.86,7401.36)">
            <path d="M39.53,0L0,78.6L43.3,41.8L39.53,0Z" style="fill:rgb(0,104,199);fill-rule:nonzero;"/>
        </g>
        <g transform="matrix(36.6023,0,0,-36.6023,5823.86,7401.36)">
            <path d="M78.98,82.14L25.56,60.62L0.22,82.14L78.98,82.14Z" style="fill:rgb(61,174,43);fill-rule:nonzero;"/>
        </g>
        <g transform="matrix(36.6023,0,0,-36.6023,5823.86,7401.36)">
            <path d="M82.09,80.3L42.4,1.34L48.29,66.68L82.09,80.3Z" style="fill:rgb(243,39,53);fill-rule:nonzero;"/>
        </g>
        <g transform="matrix(36.6023,0,0,-36.6023,5823.86,7401.36)">
            <path d="M43.78,45.03L27.95,58.46L45.6,65.56L43.78,45.03Z" style="fill:rgb(220,227,235);fill-rule:nonzero;"/>
        </g>
    </g>
</svg>
